<svg xmlns="http://www.w3.org/2000/svg" width="1200" height="750" viewBox="0 0 1200 750">
  <defs>
    <linearGradient id="g" x1="0" x2="1" y1="0" y2="1">
      <stop stop-color="#39FF14"/>
      <stop offset="1" stop-color="#00FF66"/>
    </linearGradient>
    <radialGradient id="glow" cx="50%" cy="50%" r="50%">
      <stop stop-color="#00FF66" stop-opacity="0.45"/>
      <stop offset="1" stop-color="#00FF66" stop-opacity="0"/>
    </radialGradient>
  </defs>
  <rect width="1200" height="750" fill="#020403"/>
  <rect width="1200" height="750" fill="url(#glow)" opacity="0.18"/>
  <circle cx="1040" cy="120" r="220" fill="#00FF66" opacity="0.12"/>
  <circle cx="120" cy="680" r="260" fill="#39FF14" opacity="0.11"/>
  <path d="M0 120 H1200 M0 240 H1200 M0 360 H1200 M0 480 H1200 M0 600 H1200 M160 0 V750 M320 0 V750 M480 0 V750 M640 0 V750 M800 0 V750 M960 0 V750" stroke="#00FF66" opacity="0.08"/>
  <rect x="80" y="90" width="1040" height="570" rx="28" fill="rgba(0,0,0,0.50)" stroke="#00FF66" stroke-opacity="0.28"/>
  <text x="120" y="178" fill="#00FF66" font-family="JetBrains Mono, Consolas, monospace" font-size="28">Web ambiental</text>
  <text x="120" y="320" fill="#F3F4F6" font-family="Inter, Arial, sans-serif" font-size="56" font-weight="800">Ecoworms</text>
  <text x="120" y="415" fill="#A7B0BE" font-family="JetBrains Mono, Consolas, monospace" font-size="28">HTML · CSS · JavaScript · Responsive</text>
  <text x="120" y="555" fill="url(#g)" font-family="JetBrains Mono, Consolas, monospace" font-size="68" font-weight="800">&lt; Steven /&gt;</text>
</svg>
