<svg xmlns="http://www.w3.org/2000/svg" width="1200" height="750" viewBox="0 0 1200 750">
  <defs>
    <linearGradient id="g" x1="0" x2="1" y1="0" y2="1">
      <stop stop-color="#39FF14"/>
      <stop offset="1" stop-color="#00FF66"/>
    </linearGradient>
  </defs>
  <rect width="1200" height="750" fill="#020617"/>
  <circle cx="1030" cy="120" r="220" fill="#00FF66" opacity="0.18"/>
  <circle cx="120" cy="670" r="260" fill="#39FF14" opacity="0.18"/>
  <path d="M0 120 H1200 M0 240 H1200 M0 360 H1200 M0 480 H1200 M0 600 H1200 M160 0 V750 M320 0 V750 M480 0 V750 M640 0 V750 M800 0 V750 M960 0 V750" stroke="rgba(255,255,255,0.055)"/>
  <rect x="80" y="90" width="1040" height="570" rx="28" fill="rgba(15,23,42,0.82)" stroke="rgba(255,255,255,0.14)"/>
  <text x="120" y="178" fill="#00FF66" font-family="JetBrains Mono, Consolas, monospace" font-size="28">En desarrollo</text>
  <text x="120" y="320" fill="#E5E7EB" font-family="Inter, Arial, sans-serif" font-size="56" font-weight="800">Sistema de Inventario - Mueblería Steven</text>
  <text x="120" y="415" fill="#94A3B8" font-family="JetBrains Mono, Consolas, monospace" font-size="28">React · Tailwind CSS · Supabase · PostgreSQL</text>
  <text x="120" y="555" fill="url(#g)" font-family="JetBrains Mono, Consolas, monospace" font-size="68" font-weight="800">&lt; Steven /&gt;</text>
</svg>